<?xml version="1.0" encoding="UTF-8"?>
<svg xmlns="http://www.w3.org/2000/svg" xmlns:xlink="http://www.w3.org/1999/xlink" width="187.5pt" height="187.499995pt" viewBox="0 0 187.5 187.499995" version="1.2">
<defs>
<clipPath id="clip1">
  <path d="M 18.421875 21.128906 L 159.003906 21.128906 L 159.003906 161.710938 L 18.421875 161.710938 Z M 18.421875 21.128906 "/>
</clipPath>
<clipPath id="clip2">
  <path d="M 116.359375 21.128906 L 159.003906 21.128906 L 159.003906 63.773438 L 116.359375 63.773438 Z M 116.359375 21.128906 "/>
</clipPath>
<clipPath id="clip3">
  <path d="M 116.359375 110 L 159.003906 110 L 159.003906 152.808594 L 116.359375 152.808594 Z M 116.359375 110 "/>
</clipPath>
</defs>
<g id="surface1">
<g clip-path="url(#clip1)" clip-rule="nonzero">
<path style=" stroke:none;fill-rule:nonzero;fill:rgb(85.879517%,85.879517%,85.879517%);fill-opacity:1;" d="M 156.660156 72.675781 L 137.917969 72.675781 L 137.917969 77.363281 L 150.1875 77.363281 L 113.863281 107.632812 L 61.09375 96.160156 C 60.757812 96.09375 60.398438 96.09375 60.0625 96.167969 L 47.191406 99.199219 L 45.929688 96.679688 L 44.484375 97.398438 L 45.34375 95.640625 L 41.382812 93.707031 L 43.832031 92.480469 L 41.738281 88.289062 L 37.546875 90.386719 L 39.640625 94.578125 L 40.972656 93.914062 L 39.078125 97.796875 L 41.953125 99.203125 L 42.503906 100.300781 L 23.105469 104.863281 L 23.105469 60.933594 L 27.066406 58.949219 L 25.203125 55.222656 L 23.105469 56.273438 L 23.105469 21.128906 L 18.421875 21.128906 L 18.421875 159.367188 C 18.421875 160.664062 19.472656 161.710938 20.765625 161.710938 L 159.003906 161.710938 L 159.003906 157.027344 L 23.105469 157.027344 L 23.105469 141.164062 L 24.777344 137.746094 L 23.105469 136.933594 L 23.105469 131.722656 L 26.835938 133.539062 L 28.886719 129.332031 L 24.675781 127.273438 L 23.105469 130.492188 L 23.105469 109.683594 L 35.886719 106.671875 L 39.167969 108.277344 L 40.480469 105.59375 L 60.613281 100.855469 L 113.988281 112.457031 C 114.152344 112.488281 114.320312 112.507812 114.484375 112.507812 C 115.027344 112.507812 115.5625 112.316406 115.988281 111.964844 L 154.316406 80.019531 L 154.316406 93.761719 L 159.003906 93.761719 L 159.003906 75.019531 C 159.003906 73.722656 157.953125 72.675781 156.660156 72.675781 Z M 156.660156 72.675781 "/>
</g>
<g clip-path="url(#clip2)" clip-rule="nonzero">
<path style=" stroke:none;fill-rule:nonzero;fill:rgb(85.879517%,85.879517%,85.879517%);fill-opacity:1;" d="M 137.917969 21.128906 C 126.289062 21.128906 116.828125 30.589844 116.828125 42.214844 C 116.828125 53.84375 126.289062 63.304688 137.917969 63.304688 C 149.542969 63.304688 159.003906 53.84375 159.003906 42.214844 C 159.003906 30.589844 149.542969 21.128906 137.917969 21.128906 Z M 137.917969 58.617188 C 128.875 58.617188 121.515625 51.257812 121.515625 42.214844 C 121.515625 33.175781 128.875 25.816406 137.917969 25.816406 C 146.960938 25.816406 154.316406 33.175781 154.316406 42.214844 C 154.316406 51.257812 146.960938 58.617188 137.917969 58.617188 Z M 137.917969 58.617188 "/>
</g>
<path style=" stroke:none;fill-rule:nonzero;fill:rgb(85.879517%,85.879517%,85.879517%);fill-opacity:1;" d="M 137.917969 30.5 C 134.039062 30.5 130.886719 33.652344 130.886719 37.53125 L 135.574219 37.53125 C 135.574219 36.238281 136.625 35.1875 137.917969 35.1875 C 139.207031 35.1875 140.257812 36.238281 140.257812 37.53125 C 140.257812 38.824219 139.207031 39.875 137.917969 39.875 C 136.625 39.875 135.574219 40.921875 135.574219 42.214844 L 135.574219 46.902344 L 140.257812 46.902344 L 140.257812 44.160156 C 142.988281 43.191406 144.945312 40.585938 144.945312 37.53125 C 144.945312 33.652344 141.792969 30.5 137.917969 30.5 Z M 137.917969 30.5 "/>
<path style=" stroke:none;fill-rule:nonzero;fill:rgb(85.879517%,85.879517%,85.879517%);fill-opacity:1;" d="M 135.574219 49.246094 L 140.257812 49.246094 L 140.257812 53.933594 L 135.574219 53.933594 Z M 135.574219 49.246094 "/>
<path style=" stroke:none;fill-rule:nonzero;fill:rgb(85.879517%,85.879517%,85.879517%);fill-opacity:1;" d="M 79.339844 37.53125 L 84.027344 37.53125 L 84.027344 42.214844 L 79.339844 42.214844 Z M 79.339844 37.53125 "/>
<path style=" stroke:none;fill-rule:nonzero;fill:rgb(85.879517%,85.879517%,85.879517%);fill-opacity:1;" d="M 88.710938 37.53125 L 93.398438 37.53125 L 93.398438 42.214844 L 88.710938 42.214844 Z M 88.710938 37.53125 "/>
<path style=" stroke:none;fill-rule:nonzero;fill:rgb(85.879517%,85.879517%,85.879517%);fill-opacity:1;" d="M 98.085938 37.53125 L 102.769531 37.53125 L 102.769531 42.214844 L 98.085938 42.214844 Z M 98.085938 37.53125 "/>
<path style=" stroke:none;fill-rule:nonzero;fill:rgb(85.879517%,85.879517%,85.879517%);fill-opacity:1;" d="M 107.457031 37.53125 L 112.144531 37.53125 L 112.144531 42.214844 L 107.457031 42.214844 Z M 107.457031 37.53125 "/>
<path style=" stroke:none;fill-rule:nonzero;fill:rgb(85.879517%,85.879517%,85.879517%);fill-opacity:1;" d="M 26.738281 123.058594 L 28.792969 118.847656 L 33.003906 120.902344 L 30.945312 125.113281 Z M 26.738281 123.058594 "/>
<path style=" stroke:none;fill-rule:nonzero;fill:rgb(85.879517%,85.879517%,85.879517%);fill-opacity:1;" d="M 43.183594 89.375 L 45.246094 85.164062 L 49.457031 87.222656 L 47.394531 91.429688 Z M 43.183594 89.375 "/>
<path style=" stroke:none;fill-rule:nonzero;fill:rgb(85.879517%,85.879517%,85.879517%);fill-opacity:1;" d="M 51.410156 72.53125 L 53.472656 68.320312 L 57.683594 70.378906 L 55.621094 74.585938 Z M 51.410156 72.53125 "/>
<path style=" stroke:none;fill-rule:nonzero;fill:rgb(85.879517%,85.879517%,85.879517%);fill-opacity:1;" d="M 63.75 47.269531 L 65.808594 43.054688 L 70.015625 45.109375 L 67.960938 49.324219 Z M 63.75 47.269531 "/>
<path style=" stroke:none;fill-rule:nonzero;fill:rgb(85.879517%,85.879517%,85.879517%);fill-opacity:1;" d="M 30.847656 114.640625 L 32.902344 110.429688 L 37.113281 112.480469 L 35.058594 116.695312 Z M 30.847656 114.640625 "/>
<path style=" stroke:none;fill-rule:nonzero;fill:rgb(85.879517%,85.879517%,85.879517%);fill-opacity:1;" d="M 47.300781 80.953125 L 49.355469 76.738281 L 53.566406 78.792969 L 51.507812 83.007812 Z M 47.300781 80.953125 "/>
<path style=" stroke:none;fill-rule:nonzero;fill:rgb(85.879517%,85.879517%,85.879517%);fill-opacity:1;" d="M 69.96875 37.53125 L 74.652344 37.53125 L 74.652344 42.214844 L 69.96875 42.214844 Z M 69.96875 37.53125 "/>
<path style=" stroke:none;fill-rule:nonzero;fill:rgb(85.879517%,85.879517%,85.879517%);fill-opacity:1;" d="M 55.527344 64.113281 L 57.582031 59.898438 L 61.792969 61.953125 L 59.734375 66.167969 Z M 55.527344 64.113281 "/>
<path style=" stroke:none;fill-rule:nonzero;fill:rgb(85.879517%,85.879517%,85.879517%);fill-opacity:1;" d="M 59.636719 55.6875 L 61.699219 51.480469 L 65.90625 53.535156 L 63.847656 57.746094 Z M 59.636719 55.6875 "/>
<path style=" stroke:none;fill-rule:nonzero;fill:rgb(85.879517%,85.879517%,85.879517%);fill-opacity:1;" d="M 45.921875 107.152344 L 50.113281 105.058594 L 52.210938 109.25 L 48.019531 111.34375 Z M 45.921875 107.152344 "/>
<path style=" stroke:none;fill-rule:nonzero;fill:rgb(85.879517%,85.879517%,85.879517%);fill-opacity:1;" d="M 50.117188 115.535156 L 54.308594 113.4375 L 56.402344 117.628906 L 52.210938 119.726562 Z M 50.117188 115.535156 "/>
<path style=" stroke:none;fill-rule:nonzero;fill:rgb(85.879517%,85.879517%,85.879517%);fill-opacity:1;" d="M 54.304688 123.914062 L 58.5 121.820312 L 60.59375 126.011719 L 56.398438 128.109375 Z M 54.304688 123.914062 "/>
<path style=" stroke:none;fill-rule:nonzero;fill:rgb(85.879517%,85.879517%,85.879517%);fill-opacity:1;" d="M 60.597656 128.910156 L 65.28125 128.910156 L 65.28125 133.59375 L 60.597656 133.59375 Z M 60.597656 128.910156 "/>
<path style=" stroke:none;fill-rule:nonzero;fill:rgb(85.879517%,85.879517%,85.879517%);fill-opacity:1;" d="M 29.160156 73.621094 L 33.351562 71.523438 L 35.445312 75.714844 L 31.253906 77.8125 Z M 29.160156 73.621094 "/>
<path style=" stroke:none;fill-rule:nonzero;fill:rgb(85.879517%,85.879517%,85.879517%);fill-opacity:1;" d="M 24.96875 65.238281 L 29.160156 63.140625 L 31.253906 67.332031 L 27.066406 69.429688 Z M 24.96875 65.238281 "/>
<path style=" stroke:none;fill-rule:nonzero;fill:rgb(85.879517%,85.879517%,85.879517%);fill-opacity:1;" d="M 33.351562 82.003906 L 37.542969 79.910156 L 39.636719 84.097656 L 35.445312 86.195312 Z M 33.351562 82.003906 "/>
<g clip-path="url(#clip3)" clip-rule="nonzero">
<path style=" stroke:none;fill-rule:nonzero;fill:rgb(85.879517%,85.879517%,85.879517%);fill-opacity:1;" d="M 137.917969 110.164062 C 126.289062 110.164062 116.828125 119.625 116.828125 131.253906 C 116.828125 142.878906 126.289062 152.339844 137.917969 152.339844 C 149.542969 152.339844 159.003906 142.878906 159.003906 131.253906 C 159.003906 119.625 149.542969 110.164062 137.917969 110.164062 Z M 137.917969 147.652344 C 128.875 147.652344 121.515625 140.296875 121.515625 131.253906 C 121.515625 122.210938 128.875 114.851562 137.917969 114.851562 C 146.960938 114.851562 154.316406 122.210938 154.316406 131.253906 C 154.316406 140.296875 146.960938 147.652344 137.917969 147.652344 Z M 137.917969 147.652344 "/>
</g>
<path style=" stroke:none;fill-rule:nonzero;fill:rgb(85.879517%,85.879517%,85.879517%);fill-opacity:1;" d="M 137.917969 119.539062 C 134.039062 119.539062 130.886719 122.6875 130.886719 126.566406 L 135.574219 126.566406 C 135.574219 125.273438 136.625 124.222656 137.917969 124.222656 C 139.207031 124.222656 140.257812 125.273438 140.257812 126.566406 C 140.257812 127.859375 139.207031 128.910156 137.917969 128.910156 C 136.625 128.910156 135.574219 129.957031 135.574219 131.253906 L 135.574219 135.9375 L 140.257812 135.9375 L 140.257812 133.195312 C 142.988281 132.226562 144.945312 129.625 144.945312 126.566406 C 144.945312 122.6875 141.792969 119.539062 137.917969 119.539062 Z M 137.917969 119.539062 "/>
<path style=" stroke:none;fill-rule:nonzero;fill:rgb(85.879517%,85.879517%,85.879517%);fill-opacity:1;" d="M 135.574219 138.28125 L 140.257812 138.28125 L 140.257812 142.96875 L 135.574219 142.96875 Z M 135.574219 138.28125 "/>
<path style=" stroke:none;fill-rule:nonzero;fill:rgb(85.879517%,85.879517%,85.879517%);fill-opacity:1;" d="M 107.457031 128.910156 L 112.144531 128.910156 L 112.144531 133.59375 L 107.457031 133.59375 Z M 107.457031 128.910156 "/>
<path style=" stroke:none;fill-rule:nonzero;fill:rgb(85.879517%,85.879517%,85.879517%);fill-opacity:1;" d="M 98.085938 128.910156 L 102.769531 128.910156 L 102.769531 133.59375 L 98.085938 133.59375 Z M 98.085938 128.910156 "/>
<path style=" stroke:none;fill-rule:nonzero;fill:rgb(85.879517%,85.879517%,85.879517%);fill-opacity:1;" d="M 88.710938 128.910156 L 93.398438 128.910156 L 93.398438 133.59375 L 88.710938 133.59375 Z M 88.710938 128.910156 "/>
<path style=" stroke:none;fill-rule:nonzero;fill:rgb(85.879517%,85.879517%,85.879517%);fill-opacity:1;" d="M 79.339844 128.910156 L 84.027344 128.910156 L 84.027344 133.59375 L 79.339844 133.59375 Z M 79.339844 128.910156 "/>
<path style=" stroke:none;fill-rule:nonzero;fill:rgb(85.879517%,85.879517%,85.879517%);fill-opacity:1;" d="M 69.96875 128.910156 L 74.652344 128.910156 L 74.652344 133.59375 L 69.96875 133.59375 Z M 69.96875 128.910156 "/>
</g>
</svg>
