<?xml version="1.0" encoding="UTF-8"?>
<svg xmlns="http://www.w3.org/2000/svg" xmlns:xlink="http://www.w3.org/1999/xlink" width="187.5pt" height="187.499995pt" viewBox="0 0 187.5 187.499995" version="1.2">
<defs>
<clipPath id="clip1">
  <path d="M 3.75 3.75 L 184.5 3.75 L 184.5 184.5 L 3.75 184.5 Z M 3.75 3.75 "/>
</clipPath>
</defs>
<g id="surface1">
<g clip-path="url(#clip1)" clip-rule="nonzero">
<path style=" stroke:none;fill-rule:nonzero;fill:rgb(93.328857%,94.509888%,93.728638%);fill-opacity:1;" d="M 123.238281 8.753906 C 122.9375 8.753906 122.9375 8.753906 123.238281 8.753906 L 122.9375 8.753906 C 113.835938 5.722656 104.132812 3.898438 94.125 3.898438 C 44.390625 3.898438 3.75 44.539062 3.75 94.277344 C 3.75 144.015625 44.085938 184.347656 94.125 184.347656 C 143.859375 184.347656 184.199219 144.015625 184.199219 94.277344 C 184.5 54.546875 158.71875 20.882812 123.238281 8.753906 Z M 139.613281 128.546875 C 139.613281 127.03125 140.828125 125.816406 142.34375 125.816406 C 143.859375 125.816406 145.074219 127.03125 145.074219 128.546875 C 145.074219 130.0625 143.859375 131.277344 142.34375 131.277344 C 140.828125 131.277344 139.613281 130.0625 139.613281 128.546875 Z M 144.773438 121.570312 C 144.164062 121.265625 143.257812 121.265625 142.648438 121.265625 C 138.707031 121.265625 135.367188 124.601562 135.367188 128.546875 C 135.367188 130.0625 135.976562 131.578125 136.886719 132.792969 C 125.96875 144.621094 110.5 151.59375 94.425781 151.59375 C 72.289062 151.59375 52.273438 138.855469 42.570312 119.144531 C 44.085938 117.933594 45.296875 115.808594 45.296875 113.6875 C 45.296875 109.742188 42.265625 106.40625 38.324219 106.40625 C 37.414062 102.464844 37.109375 98.519531 37.109375 94.277344 C 37.109375 62.738281 62.890625 36.957031 94.425781 36.957031 C 99.886719 36.957031 105.347656 37.867188 110.5 39.382812 L 102.917969 61.523438 C 100.191406 60.917969 97.15625 60.308594 94.125 60.308594 C 75.320312 60.308594 60.160156 75.476562 60.160156 94.277344 C 60.160156 113.078125 75.320312 128.242188 94.125 128.242188 C 112.929688 128.242188 128.089844 113.078125 128.089844 94.277344 C 128.089844 83.359375 122.9375 73.351562 114.140625 66.984375 L 126.875 47.269531 C 142.34375 57.886719 151.75 75.476562 151.75 94.277344 C 151.75 103.980469 149.320312 113.382812 144.773438 121.570312 Z M 38.625 116.113281 C 38.324219 116.113281 38.023438 116.417969 38.023438 116.417969 C 36.5 116.417969 35.292969 115.203125 35.292969 113.6875 C 35.292969 112.171875 36.5 110.957031 38.023438 110.957031 C 39.539062 110.957031 40.746094 112.171875 40.746094 113.6875 C 40.746094 114.898438 40.144531 115.808594 39.230469 116.113281 Z M 101.101562 94.277344 C 101.101562 98.21875 98.070312 101.25 94.125 101.25 C 90.179688 101.25 87.148438 98.21875 87.148438 94.277344 C 87.148438 90.335938 90.179688 87.300781 94.125 87.300781 L 92 93.667969 C 91.699219 94.882812 92 96.097656 93.214844 96.398438 C 93.515625 96.398438 93.824219 96.703125 94.125 96.703125 C 94.730469 96.703125 95.640625 96.398438 95.945312 95.792969 L 99.585938 90.335938 C 100.492188 91.242188 101.101562 92.757812 101.101562 94.277344 Z M 95.640625 82.753906 L 94.125 82.753906 C 87.757812 82.753906 82.601562 87.90625 82.601562 94.277344 C 82.601562 100.644531 87.757812 105.804688 94.125 105.804688 C 100.492188 105.804688 105.648438 100.644531 105.648438 94.277344 C 105.648438 90.9375 104.4375 88.210938 102.007812 86.089844 L 111.714844 70.921875 C 118.992188 76.382812 123.542969 85.175781 123.542969 94.582031 C 123.542969 110.957031 110.199219 123.996094 94.125 123.996094 C 77.75 123.996094 64.707031 110.652344 64.707031 94.582031 C 64.707031 78.507812 78.050781 65.164062 94.125 65.164062 C 96.550781 65.164062 98.976562 65.464844 101.402344 66.070312 Z M 102.316406 77.597656 L 115.355469 38.78125 C 115.355469 38.78125 115.65625 38.472656 115.65625 38.472656 L 115.65625 38.171875 L 123.84375 13.90625 C 129 15.730469 133.851562 18.152344 138.707031 20.882812 Z M 94.125 179.796875 C 46.8125 179.796875 8.601562 141.585938 8.601562 94.277344 C 8.601562 46.964844 46.8125 8.753906 94.125 8.753906 C 102.917969 8.753906 111.410156 9.96875 119.296875 12.699219 L 111.714844 35.136719 C 105.953125 33.320312 100.191406 32.410156 94.125 32.410156 C 59.851562 32.410156 32.253906 60.007812 32.253906 94.277344 C 32.253906 98.828125 32.863281 103.375 33.777344 107.621094 C 31.953125 108.835938 30.738281 110.957031 30.738281 113.382812 C 30.738281 117.324219 34.078125 120.664062 38.023438 120.664062 L 38.324219 120.664062 C 48.636719 142.191406 70.46875 156.144531 94.425781 156.144531 C 112.015625 156.144531 129 148.5625 140.828125 135.523438 C 141.433594 135.824219 142.042969 135.824219 142.648438 135.824219 C 146.589844 135.824219 149.925781 132.488281 149.925781 128.546875 C 149.925781 127.03125 149.320312 125.511719 148.710938 124.300781 C 153.871094 115.203125 156.597656 104.890625 156.597656 94.277344 C 156.597656 73.957031 146.589844 54.847656 129.914062 43.328125 L 142.648438 23.3125 C 165.394531 38.78125 180.253906 64.859375 180.253906 94.277344 C 179.648438 141.585938 141.433594 179.796875 94.125 179.796875 Z M 94.125 179.796875 "/>
</g>
</g>
</svg>
